<svg
  width="8"
  height="10"
  viewBox="0 0 8 10"
  fill="none"
  xmlns="http://www.w3.org/2000/svg"
>
  <path
    d="M3.848 1.101C3.94893 1.08755 4.05107 1.08755 4.152 1.101C4.31275 1.12242 4.49224 1.20291 4.77168 1.43752C5.05935 1.67905 5.39886 2.036 5.89217 2.55636L7.10769 3.83852C7.31053 4.05248 7.64088 4.05402 7.84554 3.84196C8.0502 3.6299 8.05167 3.28454 7.84883 3.07058L6.61141 1.76531C6.14536 1.2737 5.76446 0.8719 5.42507 0.58695C5.07215 0.290638 4.71393 0.0761418 4.28394 0.0188429C4.0954 -0.00628098 3.9046 -0.00628094 3.71606 0.0188429C3.28607 0.0761418 2.92785 0.290638 2.57493 0.58695C2.23554 0.871902 1.85464 1.2737 1.38858 1.76532L0.151172 3.07058C-0.0516691 3.28454 -0.0501953 3.6299 0.154464 3.84196C0.359122 4.05402 0.689466 4.05248 0.892307 3.83852L2.10783 2.55636C2.60114 2.036 2.94064 1.67905 3.22832 1.43752C3.50776 1.20291 3.68725 1.12242 3.848 1.101Z"
    fill="#4F6262"
  />
  <path
    d="M7.84883 6.92942C8.05167 6.71546 8.0502 6.3701 7.84554 6.15804C7.64088 5.94598 7.31053 5.94752 7.10769 6.16148L5.89217 7.44364C5.39886 7.964 5.05936 8.32095 4.77168 8.56248C4.49224 8.79709 4.31275 8.87758 4.152 8.899C4.05107 8.91245 3.94893 8.91245 3.848 8.899C3.68725 8.87758 3.50776 8.79709 3.22832 8.56248C2.94065 8.32095 2.60114 7.964 2.10783 7.44364L0.892307 6.16149C0.689466 5.94752 0.359122 5.94598 0.154463 6.15804C-0.0501953 6.3701 -0.0516691 6.71546 0.151172 6.92943L1.38859 8.23468C1.85464 8.7263 2.23554 9.1281 2.57493 9.41305C2.92785 9.70936 3.28607 9.92386 3.71606 9.98116C3.9046 10.0063 4.0954 10.0063 4.28394 9.98116C4.71393 9.92386 5.07215 9.70936 5.42507 9.41305C5.76446 9.1281 6.14536 8.7263 6.61141 8.23469L7.84883 6.92942Z"
    fill="#4F6262"
  />
</svg>
